%TF.GenerationSoftware,KiCad,Pcbnew,9.0.4*%
%TF.CreationDate,2026-04-18T16:30:28+08:00*%
%TF.ProjectId,antenna,616e7465-6e6e-4612-9e6b-696361645f70,rev?*%
%TF.SameCoordinates,Original*%
%TF.FileFunction,Copper,L2,Bot*%
%TF.FilePolarity,Positive*%
%FSLAX46Y46*%
G04 Gerber Fmt 4.6, Leading zero omitted, Abs format (unit mm)*
G04 Created by KiCad (PCBNEW 9.0.4) date 2026-04-18 16:30:28*
%MOMM*%
%LPD*%
G01*
G04 APERTURE LIST*
%TA.AperFunction,ComponentPad*%
%ADD10R,0.900000X0.500000*%
%TD*%
%TA.AperFunction,ViaPad*%
%ADD11C,0.600000*%
%TD*%
G04 APERTURE END LIST*
D10*
%TO.P,AE2,2,Shield*%
%TO.N,GND*%
X12850000Y-7180000D03*
%TD*%
D11*
%TO.N,GND*%
X16100000Y-10841667D03*
X16100000Y-11680000D03*
X16100000Y-12518334D03*
X16100000Y-13356667D03*
X16100000Y-14195000D03*
X16100000Y-15033334D03*
X16100000Y-15871667D03*
X13870000Y-15980000D03*
X13870000Y-15128333D03*
X13870000Y-14276667D03*
X13870000Y-13425000D03*
X13870000Y-12573333D03*
X13870000Y-11721667D03*
X13870000Y-10870000D03*
%TD*%
%TA.AperFunction,Conductor*%
%TO.N,GND*%
G36*
X7675038Y-1165185D02*
G01*
X7720793Y-1217989D01*
X7731997Y-1268928D01*
X7766489Y-8765000D01*
X7766490Y-8765000D01*
X31393166Y-8765000D01*
X31381653Y-1269690D01*
X31401235Y-1202621D01*
X31453968Y-1156785D01*
X31505653Y-1145500D01*
X37555500Y-1145500D01*
X37622539Y-1165185D01*
X37668294Y-1217989D01*
X37679500Y-1269500D01*
X37679500Y-21480500D01*
X37659815Y-21547539D01*
X37607011Y-21593294D01*
X37555500Y-21604500D01*
X1374500Y-21604500D01*
X1307461Y-21584815D01*
X1261706Y-21532011D01*
X1250500Y-21480500D01*
X1250500Y-1269500D01*
X1270185Y-1202461D01*
X1322989Y-1156706D01*
X1374500Y-1145500D01*
X7607999Y-1145500D01*
X7675038Y-1165185D01*
G37*
%TD.AperFunction*%
%TD*%
M02*
