%TF.GenerationSoftware,KiCad,Pcbnew,9.0.4*%
%TF.CreationDate,2026-04-18T16:30:28+08:00*%
%TF.ProjectId,antenna,616e7465-6e6e-4612-9e6b-696361645f70,rev?*%
%TF.SameCoordinates,Original*%
%TF.FileFunction,Copper,L1,Top*%
%TF.FilePolarity,Positive*%
%FSLAX46Y46*%
G04 Gerber Fmt 4.6, Leading zero omitted, Abs format (unit mm)*
G04 Created by KiCad (PCBNEW 9.0.4) date 2026-04-18 16:30:28*
%MOMM*%
%LPD*%
G01*
G04 APERTURE LIST*
%TA.AperFunction,EtchedComponent*%
%ADD10C,0.000000*%
%TD*%
%TA.AperFunction,ConnectorPad*%
%ADD11R,0.500000X0.500000*%
%TD*%
%TA.AperFunction,ComponentPad*%
%ADD12R,0.900000X0.500000*%
%TD*%
%TA.AperFunction,SMDPad,CuDef*%
%ADD13C,1.000000*%
%TD*%
%TA.AperFunction,ViaPad*%
%ADD14C,0.600000*%
%TD*%
%TA.AperFunction,Conductor*%
%ADD15C,0.200000*%
%TD*%
%TA.AperFunction,Conductor*%
%ADD16C,0.254000*%
%TD*%
G04 APERTURE END LIST*
D10*
%TA.AperFunction,EtchedComponent*%
%TO.C,AE2*%
G36*
X17400000Y-4670000D02*
G01*
X19400000Y-4670000D01*
X19400000Y-2030000D01*
X22100000Y-2030000D01*
X22100000Y-4670000D01*
X24100000Y-4670000D01*
X24100000Y-2030000D01*
X26800000Y-2030000D01*
X26800000Y-6470000D01*
X26300000Y-6470000D01*
X26300000Y-2530000D01*
X24600000Y-2530000D01*
X24600000Y-5170000D01*
X21600000Y-5170000D01*
X21600000Y-2530000D01*
X19900000Y-2530000D01*
X19900000Y-5170000D01*
X16900000Y-5170000D01*
X16900000Y-2530000D01*
X15200000Y-2530000D01*
X15200000Y-7430000D01*
X14700000Y-7430000D01*
X14700000Y-2530000D01*
X13300000Y-2530000D01*
X13300000Y-7430000D01*
X12400000Y-7430000D01*
X12400000Y-7186785D01*
X12702417Y-7186785D01*
X12712258Y-7234395D01*
X12736326Y-7276797D01*
X12774269Y-7309581D01*
X12782181Y-7313935D01*
X12824844Y-7326043D01*
X12873363Y-7325300D01*
X12918878Y-7312400D01*
X12937489Y-7301787D01*
X12971132Y-7266553D01*
X12991691Y-7221368D01*
X12998222Y-7171842D01*
X12989782Y-7123583D01*
X12972888Y-7091357D01*
X12937628Y-7058687D01*
X12892318Y-7038592D01*
X12842733Y-7032018D01*
X12794647Y-7039908D01*
X12761755Y-7056814D01*
X12726815Y-7093584D01*
X12707153Y-7138378D01*
X12702417Y-7186785D01*
X12400000Y-7186785D01*
X12400000Y-2030000D01*
X17400000Y-2030000D01*
X17400000Y-4670000D01*
G37*
%TD.AperFunction*%
%TD*%
D11*
%TO.P,AE2,1,A*%
%TO.N,Net-(AE2-A)*%
X14950000Y-7180000D03*
D12*
%TO.P,AE2,2,Shield*%
%TO.N,GND*%
X12850000Y-7180000D03*
%TD*%
D13*
%TO.P,TP1,1,1*%
%TO.N,Net-(AE2-A)*%
X14950000Y-9845000D03*
%TD*%
%TO.P,TP2,1,1*%
%TO.N,Net-(AE2-A)*%
X14960000Y-17025000D03*
%TD*%
D14*
%TO.N,GND*%
X16100000Y-10841667D03*
X16100000Y-11680000D03*
X16100000Y-12518334D03*
X16100000Y-13356667D03*
X16100000Y-14195000D03*
X16100000Y-15033334D03*
X16100000Y-15871667D03*
X13870000Y-15980000D03*
X13870000Y-15128333D03*
X13870000Y-14276667D03*
X13870000Y-13425000D03*
X13870000Y-12573333D03*
X13870000Y-11721667D03*
X13870000Y-10870000D03*
%TD*%
D15*
%TO.N,Net-(AE2-A)*%
X14950000Y-9845000D02*
X14950000Y-7180000D01*
X14960000Y-9855000D02*
X14950000Y-9845000D01*
X14960000Y-17025000D02*
X14960000Y-9855000D01*
D16*
%TO.N,GND*%
X12850000Y-9310000D02*
X12850000Y-7180000D01*
%TD*%
%TA.AperFunction,Conductor*%
%TO.N,GND*%
G36*
X7675038Y-1165185D02*
G01*
X7720793Y-1217989D01*
X7731997Y-1268928D01*
X7766489Y-8765000D01*
X14225500Y-8765000D01*
X14234185Y-8767550D01*
X14243147Y-8766262D01*
X14267187Y-8777240D01*
X14292539Y-8784685D01*
X14298466Y-8791525D01*
X14306703Y-8795287D01*
X14320992Y-8817521D01*
X14338294Y-8837489D01*
X14340581Y-8848003D01*
X14344477Y-8854065D01*
X14349500Y-8889000D01*
X14349500Y-8979216D01*
X14329815Y-9046255D01*
X14313181Y-9066897D01*
X14172863Y-9207214D01*
X14172860Y-9207218D01*
X14063371Y-9371079D01*
X14063364Y-9371092D01*
X13987950Y-9553160D01*
X13987947Y-9553170D01*
X13949500Y-9746456D01*
X13949500Y-9746459D01*
X13949500Y-9943541D01*
X13949500Y-9943543D01*
X13949499Y-9943543D01*
X13987947Y-10136829D01*
X13987950Y-10136839D01*
X14063364Y-10318907D01*
X14063371Y-10318920D01*
X14172859Y-10482780D01*
X14312220Y-10622141D01*
X14314168Y-10623739D01*
X14314913Y-10624833D01*
X14316526Y-10626446D01*
X14316220Y-10626751D01*
X14353501Y-10681487D01*
X14359500Y-10719590D01*
X14359500Y-16159216D01*
X14339815Y-16226255D01*
X14323181Y-16246897D01*
X14182863Y-16387214D01*
X14182860Y-16387218D01*
X14073371Y-16551079D01*
X14073364Y-16551092D01*
X13997950Y-16733160D01*
X13997947Y-16733170D01*
X13959500Y-16926456D01*
X13959500Y-16926459D01*
X13959500Y-17123541D01*
X13959500Y-17123543D01*
X13959499Y-17123543D01*
X13997947Y-17316829D01*
X13997950Y-17316839D01*
X14073364Y-17498907D01*
X14073371Y-17498920D01*
X14182860Y-17662781D01*
X14182863Y-17662785D01*
X14322214Y-17802136D01*
X14322218Y-17802139D01*
X14486079Y-17911628D01*
X14486092Y-17911635D01*
X14668160Y-17987049D01*
X14668165Y-17987051D01*
X14668169Y-17987051D01*
X14668170Y-17987052D01*
X14861456Y-18025500D01*
X14861459Y-18025500D01*
X15058543Y-18025500D01*
X15188582Y-17999632D01*
X15251835Y-17987051D01*
X15433914Y-17911632D01*
X15597782Y-17802139D01*
X15737139Y-17662782D01*
X15846632Y-17498914D01*
X15922051Y-17316835D01*
X15960500Y-17123541D01*
X15960500Y-16926459D01*
X15960500Y-16926456D01*
X15922052Y-16733170D01*
X15922051Y-16733169D01*
X15922051Y-16733165D01*
X15922049Y-16733160D01*
X15846635Y-16551092D01*
X15846628Y-16551079D01*
X15737139Y-16387218D01*
X15737136Y-16387214D01*
X15596819Y-16246897D01*
X15563334Y-16185574D01*
X15560500Y-16159216D01*
X15560500Y-10700784D01*
X15580185Y-10633745D01*
X15596819Y-10613103D01*
X15727136Y-10482785D01*
X15727139Y-10482782D01*
X15836632Y-10318914D01*
X15912051Y-10136835D01*
X15950500Y-9943541D01*
X15950500Y-9746459D01*
X15950500Y-9746456D01*
X15912052Y-9553170D01*
X15912051Y-9553169D01*
X15912051Y-9553165D01*
X15912049Y-9553160D01*
X15836635Y-9371092D01*
X15836628Y-9371079D01*
X15727139Y-9207218D01*
X15727136Y-9207214D01*
X15586819Y-9066897D01*
X15572115Y-9039969D01*
X15555523Y-9014151D01*
X15554631Y-9007950D01*
X15553334Y-9005574D01*
X15550500Y-8979216D01*
X15550500Y-8889000D01*
X15570185Y-8821961D01*
X15622989Y-8776206D01*
X15674500Y-8765000D01*
X31393166Y-8765000D01*
X31381653Y-1269690D01*
X31401235Y-1202621D01*
X31453968Y-1156785D01*
X31505653Y-1145500D01*
X37555500Y-1145500D01*
X37622539Y-1165185D01*
X37668294Y-1217989D01*
X37679500Y-1269500D01*
X37679500Y-21480500D01*
X37659815Y-21547539D01*
X37607011Y-21593294D01*
X37555500Y-21604500D01*
X1374500Y-21604500D01*
X1307461Y-21584815D01*
X1261706Y-21532011D01*
X1250500Y-21480500D01*
X1250500Y-1269500D01*
X1270185Y-1202461D01*
X1322989Y-1156706D01*
X1374500Y-1145500D01*
X7607999Y-1145500D01*
X7675038Y-1165185D01*
G37*
%TD.AperFunction*%
%TD*%
M02*
